<?xml version="1.0" encoding="UTF-8"?>
<!DOCTYPE svg PUBLIC "-//W3C//DTD SVG 1.1//EN" "http://www.w3.org/Graphics/SVG/1.1/DTD/svg11.dtd">
<!-- Creator: CorelDRAW (OEM Version) -->
<svg xmlns="http://www.w3.org/2000/svg" xml:space="preserve" width="183.6mm" height="43.01mm" version="1.1" style="shape-rendering:geometricPrecision; text-rendering:geometricPrecision; image-rendering:optimizeQuality; fill-rule:evenodd; clip-rule:evenodd"
viewBox="0 0 18360 4301"
 xmlns:xlink="http://www.w3.org/1999/xlink"
 xmlns:xodm="http://www.corel.com/coreldraw/odm/2003">
 <defs>
  <style type="text/css">
   <![CDATA[
    .fil0 {fill:#0B706E;fill-rule:nonzero}
   ]]>
  </style>
 </defs>
 <g id="Layer_x0020_1">
  <metadata id="CorelCorpID_0Corel-Layer"/>
  <path class="fil0" d="M2347.64 2025.84c163.77,126.55 285.66,283.8 365.68,471.76 80.02,187.96 105.15,382.43 75.37,583.41 -33.49,227.04 -122.82,417.79 -267.98,572.25 -145.15,154.46 -316.36,276.35 -513.62,365.68 -197.27,89.33 -410.35,148.88 -639.25,178.65 -228.89,29.78 -443.84,33.5 -644.82,11.17 -18.61,7.44 -35.36,12.09 -50.25,13.95 -14.88,1.87 -31.63,4.66 -50.24,8.38 -67,3.72 -135.85,3.72 -206.57,0 -70.72,-3.72 -134.92,-15.82 -192.61,-36.29 -57.69,-20.47 -107.01,-53.97 -147.95,-100.49 -40.94,-46.53 -65.13,-112.59 -72.57,-198.19 -7.45,-40.95 -9.31,-123.76 -5.59,-248.44 3.72,-124.69 7.45,-276.36 11.17,-455.01 7.44,-182.38 13.96,-380.57 19.54,-594.58 5.58,-214.01 10.23,-428.95 13.96,-644.82 3.72,-282.87 7.44,-567.6 11.16,-854.19 3.72,-286.59 -7.44,-575.04 -33.5,-865.35 -7.44,-33.49 -3.72,-63.27 11.17,-89.32 7.44,-22.34 24.19,-43.74 50.25,-64.21 26.05,-20.47 65.13,-34.42 117.24,-41.87 37.22,-3.72 78.16,-9.3 122.82,-16.75 44.66,-7.44 91.19,-13.02 139.57,-16.75 48.39,-3.72 94.91,-3.72 139.58,0 44.66,3.73 83.74,11.17 117.24,22.34 189.82,-26.06 388.94,-26.99 597.37,-2.8 208.43,24.2 404.76,73.51 588.99,147.95 184.24,74.44 344.28,174 480.13,298.69 135.85,124.68 226.11,276.35 270.77,455 18.61,78.16 29.78,160.05 33.5,245.65 3.72,85.6 -5.58,174 -27.91,265.19 -22.34,91.18 -58.62,186.09 -108.87,284.73 -50.25,98.63 -118.17,200.05 -203.78,304.26zm-1451.55 -329.39c178.65,7.45 329.39,-11.16 452.21,-55.83 122.83,-44.66 214.95,-103.28 276.36,-175.86 61.41,-72.58 91.19,-151.67 89.32,-237.27 -1.86,-85.61 -34.42,-161.91 -97.7,-228.9 -63.27,-66.99 -158.18,-118.17 -284.72,-153.53 -126.55,-35.36 -286.59,-40.01 -480.13,-13.96 11.16,145.16 19.54,288.45 25.12,429.89 5.58,141.43 12.1,286.59 19.54,435.46zm16.75 1619.04c200.98,22.34 370.33,13.03 508.04,-27.91 137.71,-40.94 241,-96.77 309.85,-167.49 68.86,-70.71 104.22,-147.01 106.08,-228.9 1.86,-81.88 -30.71,-152.6 -97.7,-212.15 -67,-59.55 -169.35,-99.56 -307.06,-120.03 -137.71,-20.47 -310.78,-6.51 -519.21,41.87l0 714.61z"/>
  <path id="_1" class="fil0" d="M5926.28 1266.57c-37.22,454.08 -61.41,906.29 -72.57,1356.64 -11.17,450.36 -11.17,904.43 0,1362.23 -3.73,33.5 -14.89,63.27 -33.5,89.33 -18.61,22.33 -46.53,45.59 -83.74,69.78 -37.22,24.2 -87.47,40.01 -150.74,47.46 -59.55,7.44 -121.9,13.03 -187.03,16.75 -65.13,3.72 -126.55,0.93 -184.24,-8.38 -57.69,-9.3 -108.86,-26.98 -153.53,-53.03 -44.66,-26.06 -74.43,-65.14 -89.32,-117.25 -286.59,145.16 -540.61,199.13 -762.07,161.91 -221.45,-37.22 -408.48,-132.13 -561.08,-284.73 -152.6,-152.6 -268.91,-344.28 -348.93,-575.04 -80.02,-230.76 -121.89,-468.96 -125.62,-714.61 -3.72,-215.87 3.73,-433.6 22.34,-653.2 18.61,-219.59 53.96,-439.19 106.07,-658.78 11.17,-55.83 35.36,-102.35 72.58,-139.57 37.22,-37.22 87.46,-53.97 150.74,-50.25 52.1,3.72 112.59,9.31 181.44,16.75 68.86,7.44 133.06,19.54 192.61,36.29 59.55,16.75 109.8,40.01 150.74,69.78 40.94,29.78 59.55,70.72 55.83,122.83 -29.78,163.76 -53.04,329.39 -69.79,496.88 -16.75,167.48 -25.12,342.41 -25.12,524.79 0,245.65 28.84,445.7 86.53,600.16 57.69,154.46 128.41,261.47 212.15,321.02 83.75,59.55 172.14,67.92 265.19,25.12 93.05,-42.8 176.79,-138.64 251.23,-287.52 70.72,-141.43 121.9,-285.66 153.53,-432.67 31.64,-147.02 53.97,-296.83 67,-449.43 13.02,-152.6 21.4,-306.13 25.12,-460.59 3.72,-154.46 14.89,-309.85 33.5,-466.17 3.72,-26.05 14.89,-48.38 33.5,-66.99 33.49,-40.94 98.63,-59.55 195.4,-55.83 48.38,3.72 107,7.44 175.86,11.16 68.85,3.73 133.99,11.17 195.4,22.34 61.41,11.16 113.52,26.05 156.32,44.66 42.8,18.61 64.2,44.66 64.2,78.16z"/>
  <path id="_2" class="fil0" d="M8968.97 1629.46c-48.39,89.32 -110.73,170.28 -187.03,242.85 -76.3,72.58 -158.18,140.51 -245.65,203.78 -87.46,63.27 -177.72,124.68 -270.77,184.24 -93.05,59.55 -182.37,120.96 -267.98,184.23 145.16,200.99 304.27,406.62 477.34,616.91 173.07,210.29 348.93,399.18 527.59,566.67 11.16,18.61 16.74,40.94 16.74,66.99 0,22.33 -6.51,51.18 -19.54,86.54 -13.02,35.35 -40.01,79.09 -80.95,131.19 -40.94,48.39 -83.74,98.63 -128.41,150.74 -44.66,52.11 -90.25,97.7 -136.78,136.78 -46.52,39.08 -91.18,67 -133.99,83.75 -42.8,16.75 -82.81,15.81 -120.03,-2.79 -44.66,-22.34 -98.63,-67 -161.9,-133.99 -63.28,-67 -131.2,-145.16 -203.78,-234.49 -72.58,-89.32 -147.01,-187.95 -223.31,-295.89 -76.3,-107.94 -148.88,-212.15 -217.74,-312.64 -68.85,-100.49 -132.13,-195.4 -189.82,-284.73 -57.69,-89.33 -103.28,-161.9 -136.78,-217.73 -11.16,3.72 -21.4,7.44 -30.7,11.16 -9.31,3.72 -17.68,7.45 -25.13,11.17l0 1127.74c-7.44,44.67 -20.47,85.61 -39.08,122.83 -18.61,33.5 -46.52,65.13 -83.74,94.91 -37.22,29.77 -87.47,48.38 -150.74,55.83 -66.99,3.72 -134.92,6.51 -203.77,8.37 -68.86,1.86 -133.06,-5.58 -192.61,-22.33 -59.55,-16.75 -110.73,-46.53 -153.53,-89.33 -42.81,-42.8 -69.79,-107 -80.96,-192.61 -3.72,-22.33 -5.58,-55.83 -5.58,-100.49 0,-44.66 0,-98.63 0,-161.9 0,-580.63 6.51,-1159.39 19.54,-1736.29 13.03,-576.9 28.85,-1159.38 47.46,-1747.44 3.72,-29.78 13.02,-55.83 27.91,-78.16 14.89,-18.61 36.29,-37.22 64.2,-55.83 27.92,-18.61 67.93,-31.64 120.04,-39.08 52.1,-3.73 112.58,-6.52 181.44,-8.38 68.86,-1.86 133.99,0.93 195.4,8.38 61.41,7.44 114.45,22.33 159.11,44.66 44.67,22.33 68.86,55.83 72.58,100.49 3.72,297.76 7.45,594.58 11.17,890.47 3.72,295.9 5.58,592.72 5.58,890.48 189.82,-115.38 370.33,-241 541.54,-376.85 171.21,-135.85 334.98,-289.38 491.3,-460.59 52.1,-52.1 104.21,-82.81 156.32,-92.12 52.11,-9.3 115.38,12.1 189.82,64.21 29.77,18.61 71.64,49.31 125.61,92.12 53.97,42.8 104.22,91.18 150.74,145.15 46.53,53.97 82.81,108.87 108.87,164.7 26.05,55.83 26.05,107.93 0,156.32z"/>
  <path id="_3" class="fil0" d="M12140.05 1266.57c-37.22,454.08 -61.41,906.29 -72.57,1356.64 -11.17,450.36 -11.17,904.43 0,1362.23 -3.73,33.5 -14.89,63.27 -33.5,89.33 -18.61,22.33 -46.53,45.59 -83.74,69.78 -37.22,24.2 -87.47,40.01 -150.74,47.46 -59.55,7.44 -121.9,13.03 -187.03,16.75 -65.13,3.72 -126.55,0.93 -184.24,-8.38 -57.69,-9.3 -108.86,-26.98 -153.53,-53.03 -44.66,-26.06 -74.43,-65.14 -89.32,-117.25 -286.59,145.16 -540.61,199.13 -762.07,161.91 -221.45,-37.22 -408.48,-132.13 -561.08,-284.73 -152.6,-152.6 -268.91,-344.28 -348.93,-575.04 -80.02,-230.76 -121.89,-468.96 -125.62,-714.61 -3.72,-215.87 3.73,-433.6 22.34,-653.2 18.61,-219.59 53.96,-439.19 106.07,-658.78 11.17,-55.83 35.36,-102.35 72.58,-139.57 37.22,-37.22 87.46,-53.97 150.74,-50.25 52.1,3.72 112.59,9.31 181.44,16.75 68.86,7.44 133.06,19.54 192.61,36.29 59.55,16.75 109.8,40.01 150.74,69.78 40.94,29.78 59.55,70.72 55.83,122.83 -29.78,163.76 -53.04,329.39 -69.79,496.88 -16.75,167.48 -25.12,342.41 -25.12,524.79 0,245.65 28.84,445.7 86.53,600.16 57.69,154.46 128.41,261.47 212.15,321.02 83.75,59.55 172.14,67.92 265.19,25.12 93.05,-42.8 176.79,-138.64 251.23,-287.52 70.72,-141.43 121.9,-285.66 153.53,-432.67 31.64,-147.02 53.97,-296.83 67,-449.43 13.02,-152.6 21.4,-306.13 25.12,-460.59 3.72,-154.46 14.89,-309.85 33.5,-466.17 3.72,-26.05 14.89,-48.38 33.5,-66.99 33.49,-40.94 98.63,-59.55 195.4,-55.83 48.38,3.72 107,7.44 175.86,11.16 68.85,3.73 133.99,11.17 195.4,22.34 61.41,11.16 113.52,26.05 156.32,44.66 42.8,18.61 64.2,44.66 64.2,78.16z"/>
  <path id="_4" class="fil0" d="M15182.74 1629.46c-48.39,89.32 -110.73,170.28 -187.03,242.85 -76.3,72.58 -158.18,140.51 -245.65,203.78 -87.46,63.27 -177.72,124.68 -270.77,184.24 -93.05,59.55 -182.37,120.96 -267.98,184.23 145.16,200.99 304.27,406.62 477.34,616.91 173.07,210.29 348.93,399.18 527.59,566.67 11.16,18.61 16.74,40.94 16.74,66.99 0,22.33 -6.51,51.18 -19.54,86.54 -13.02,35.35 -40.01,79.09 -80.95,131.19 -40.94,48.39 -83.74,98.63 -128.41,150.74 -44.66,52.11 -90.25,97.7 -136.78,136.78 -46.52,39.08 -91.18,67 -133.99,83.75 -42.8,16.75 -82.81,15.81 -120.03,-2.79 -44.66,-22.34 -98.63,-67 -161.9,-133.99 -63.28,-67 -131.2,-145.16 -203.78,-234.49 -72.58,-89.32 -147.01,-187.95 -223.31,-295.89 -76.3,-107.94 -148.88,-212.15 -217.74,-312.64 -68.85,-100.49 -132.13,-195.4 -189.82,-284.73 -57.69,-89.33 -103.28,-161.9 -136.78,-217.73 -11.16,3.72 -21.4,7.44 -30.7,11.16 -9.31,3.72 -17.68,7.45 -25.13,11.17l0 1127.74c-7.44,44.67 -20.47,85.61 -39.08,122.83 -18.61,33.5 -46.52,65.13 -83.74,94.91 -37.22,29.77 -87.47,48.38 -150.74,55.83 -66.99,3.72 -134.92,6.51 -203.77,8.37 -68.86,1.86 -133.06,-5.58 -192.61,-22.33 -59.55,-16.75 -110.73,-46.53 -153.53,-89.33 -42.81,-42.8 -69.79,-107 -80.96,-192.61 -3.72,-22.33 -5.58,-55.83 -5.58,-100.49 0,-44.66 0,-98.63 0,-161.9 0,-580.63 6.51,-1159.39 19.54,-1736.29 13.03,-576.9 28.85,-1159.38 47.46,-1747.44 3.72,-29.78 13.02,-55.83 27.91,-78.16 14.89,-18.61 36.29,-37.22 64.2,-55.83 27.92,-18.61 67.93,-31.64 120.04,-39.08 52.1,-3.73 112.58,-6.52 181.44,-8.38 68.86,-1.86 133.99,0.93 195.4,8.38 61.41,7.44 114.45,22.33 159.11,44.66 44.67,22.33 68.86,55.83 72.58,100.49 3.72,297.76 7.45,594.58 11.17,890.47 3.72,295.9 5.58,592.72 5.58,890.48 189.82,-115.38 370.33,-241 541.54,-376.85 171.21,-135.85 334.98,-289.38 491.3,-460.59 52.1,-52.1 104.21,-82.81 156.32,-92.12 52.11,-9.3 115.38,12.1 189.82,64.21 29.77,18.61 71.64,49.31 125.61,92.12 53.97,42.8 104.22,91.18 150.74,145.15 46.53,53.97 82.81,108.87 108.87,164.7 26.05,55.83 26.05,107.93 0,156.32z"/>
  <path id="_5" class="fil0" d="M18353.82 1266.57c-37.22,454.08 -61.41,906.29 -72.57,1356.64 -11.17,450.36 -11.17,904.43 0,1362.23 -3.73,33.5 -14.89,63.27 -33.5,89.33 -18.61,22.33 -46.53,45.59 -83.74,69.78 -37.22,24.2 -87.47,40.01 -150.74,47.46 -59.55,7.44 -121.9,13.03 -187.03,16.75 -65.13,3.72 -126.55,0.93 -184.24,-8.38 -57.69,-9.3 -108.86,-26.98 -153.53,-53.03 -44.66,-26.06 -74.43,-65.14 -89.32,-117.25 -286.59,145.16 -540.61,199.13 -762.07,161.91 -221.45,-37.22 -408.48,-132.13 -561.08,-284.73 -152.6,-152.6 -268.91,-344.28 -348.93,-575.04 -80.02,-230.76 -121.89,-468.96 -125.62,-714.61 -3.72,-215.87 3.73,-433.6 22.34,-653.2 18.61,-219.59 53.96,-439.19 106.07,-658.78 11.17,-55.83 35.36,-102.35 72.58,-139.57 37.22,-37.22 87.46,-53.97 150.74,-50.25 52.1,3.72 112.59,9.31 181.44,16.75 68.86,7.44 133.06,19.54 192.61,36.29 59.55,16.75 109.8,40.01 150.74,69.78 40.94,29.78 59.55,70.72 55.83,122.83 -29.78,163.76 -53.04,329.39 -69.79,496.88 -16.75,167.48 -25.12,342.41 -25.12,524.79 0,245.65 28.84,445.7 86.53,600.16 57.69,154.46 128.41,261.47 212.15,321.02 83.75,59.55 172.14,67.92 265.19,25.12 93.05,-42.8 176.79,-138.64 251.23,-287.52 70.72,-141.43 121.9,-285.66 153.53,-432.67 31.64,-147.02 53.97,-296.83 67,-449.43 13.02,-152.6 21.4,-306.13 25.12,-460.59 3.72,-154.46 14.89,-309.85 33.5,-466.17 3.72,-26.05 14.89,-48.38 33.5,-66.99 33.49,-40.94 98.63,-59.55 195.4,-55.83 48.38,3.72 107,7.44 175.86,11.16 68.85,3.73 133.99,11.17 195.4,22.34 61.41,11.16 113.52,26.05 156.32,44.66 42.8,18.61 64.2,44.66 64.2,78.16z"/>
 </g>
</svg>
